<svg width="1133" height="225" viewBox="0 0 1133 225" fill="none" xmlns="http://www.w3.org/2000/svg">
<mask id="mask0_884_528" style="mask-type:alpha" maskUnits="userSpaceOnUse" x="0" y="0" width="1133" height="225">
<rect width="1133" height="225" rx="4" fill="#91D5FF"/>
</mask>
<g mask="url(#mask0_884_528)">
<rect width="1133" height="225" rx="4" fill="#FFF5DB"/>
<path opacity="0.4" d="M-14.7674 92.8272L-15.0002 92.5L-21.0002 338.5L62.4998 517L358 561C537.166 474.667 857.5 310.9 705.5 346.5C553.5 382.1 477.5 263 477.5 263C477.5 263 402.805 121.942 254.5 177.5C89.4848 239.318 11.7891 130.143 -14.7674 92.8272Z" fill="#FFE092"/>
<path opacity="0.4" d="M677.341 -28.9716C546.265 -99.7576 613.776 -185.031 773.302 -166.403H869.806L1188 -60.073L1165.66 122.903C1090.3 229.017 1111.19 -3.05899 977.78 44.5583C844.37 92.1755 886.922 -23.7986 826.685 -48.2295C766.448 -72.6604 722.556 -4.55353 677.341 -28.9716Z" fill="#FFE092"/>
</g>
<path opacity="0.65" d="M970.542 126.087C963.915 140.606 936.587 142.382 909.502 130.049C882.417 117.716 865.831 95.9433 872.458 81.4179C879.085 66.8987 906.413 65.1226 933.498 77.4558C960.583 89.7891 977.169 111.562 970.542 126.087Z" fill="url(#paint0_radial_884_528)"/>
<path d="M911.732 81.2821C913.532 82.3211 913.548 84.0104 911.756 85.0573L906.244 88.2614C904.451 89.3004 901.533 89.3004 899.732 88.2614C897.924 87.2145 897.916 85.5252 899.708 84.4863L905.221 81.2821C907.005 80.2432 909.924 80.2432 911.732 81.2821Z" fill="#B37FEB"/>
<path d="M952.195 87.9917C953.829 88.9355 953.829 90.4583 952.211 91.3941L931.694 103.322C930.076 104.258 927.451 104.258 925.825 103.322L925.182 102.95C923.549 102.006 923.541 100.491 925.159 99.5472L945.676 87.619C947.294 86.6831 949.919 86.6752 951.553 87.619L952.195 87.9917Z" fill="#722ED1"/>
<path d="M929.085 86.1281C930.893 87.1749 930.893 88.8642 929.109 89.9032L919.131 95.7007C917.339 96.7397 914.42 96.7397 912.612 95.7007C910.804 94.6539 910.804 92.9725 912.588 91.9256L922.566 86.1281C924.358 85.0891 927.277 85.0812 929.085 86.1281Z" fill="#B37FEB"/>
<path d="M948.333 104.79C950.133 105.829 950.149 107.526 948.357 108.565L944.899 110.579C943.107 111.618 940.188 111.618 938.38 110.579C936.571 109.532 936.564 107.843 938.356 106.804L941.814 104.79C943.606 103.751 946.525 103.751 948.333 104.79Z" fill="#B37FEB"/>
<path d="M980.398 93.2976C984.721 95.7879 984.744 99.8327 980.446 102.331L946.826 121.865C942.536 124.355 935.556 124.355 931.234 121.865L880.254 92.4331C875.931 89.9428 875.915 85.898 880.206 83.4077L913.826 63.8737C918.124 61.3754 925.095 61.3754 929.418 63.8737L980.398 93.2976ZM931.694 103.322L952.211 91.3942C953.829 90.4583 953.821 88.9356 952.196 87.9918L951.553 87.619C949.919 86.6753 947.294 86.6832 945.676 87.619L925.159 99.5472C923.541 100.483 923.549 102.006 925.183 102.95L925.825 103.322C927.451 104.266 930.076 104.266 931.694 103.322ZM919.131 95.7007L929.109 89.9032C930.901 88.8642 930.893 87.167 929.085 86.128C927.276 85.0811 924.358 85.0891 922.565 86.128L912.596 91.9256C910.804 92.9645 910.812 94.6538 912.62 95.7007C914.42 96.7397 917.339 96.7397 919.131 95.7007ZM906.244 88.2614L911.756 85.0573C913.548 84.0184 913.54 82.3291 911.732 81.2822C909.924 80.2353 907.005 80.2353 905.213 81.2822L899.7 84.4863C897.908 85.5253 897.916 87.2146 899.724 88.2614C901.533 89.3004 904.451 89.3004 906.244 88.2614ZM944.899 110.579L948.357 108.565C950.149 107.526 950.134 105.829 948.333 104.79C946.525 103.743 943.606 103.743 941.814 104.79L938.356 106.804C936.564 107.843 936.572 109.532 938.38 110.579C940.188 111.618 943.107 111.618 944.899 110.579Z" fill="#EFDBFF"/>
<path opacity="0.65" d="M932.96 177.831C927.612 189.754 903.148 190.093 878.318 178.59C853.485 167.086 837.693 148.093 843.04 136.169C848.388 124.246 872.852 123.907 897.682 135.41C922.511 146.914 938.307 165.907 932.96 177.831Z" fill="url(#paint1_radial_884_528)"/>
<path d="M957.66 150.405C960.767 152.218 960.781 155.14 957.702 156.953L927.479 174.656C924.399 176.469 919.383 176.469 916.276 174.656L842.342 131.605C839.234 129.793 839.234 126.87 842.314 125.058L872.537 107.354C875.616 105.556 880.633 105.542 883.726 107.354L957.66 150.405Z" fill="#95DE64"/>
<path d="M883.349 120.393C888.505 123.456 888.449 128.374 883.224 131.381C879.086 133.755 872.955 134.219 868.022 132.8C869.346 133.179 870.753 133.432 872.188 133.531C875.296 131.69 875.309 128.739 872.188 126.885C868.983 125.016 863.897 125.002 860.734 126.814C860.734 126.814 860.734 126.927 860.776 127.109C861.027 127.953 861.515 128.782 862.239 129.554C859.425 126.576 860.205 122.768 864.538 120.267C869.736 117.288 878.082 117.316 883.238 120.323C883.294 120.351 883.322 120.365 883.349 120.393ZM873.303 126.435C875.226 127.559 878.319 127.559 880.256 126.449C882.207 125.339 882.221 123.513 880.312 122.374C880.298 122.374 880.284 122.36 880.284 122.36C878.361 121.236 875.268 121.236 873.331 122.332C871.394 123.442 871.366 125.269 873.289 126.407C873.275 126.435 873.289 126.435 873.303 126.435Z" fill="#D9F7BE"/>
<path d="M872.146 126.843C872.16 126.857 872.188 126.871 872.202 126.871C875.309 128.725 875.295 131.676 872.202 133.517C870.363 133.376 868.579 133.011 866.949 132.435C866.893 132.421 866.865 132.407 866.837 132.393C866.824 132.393 866.81 132.378 866.796 132.378C866.768 132.364 866.754 132.364 866.726 132.35C866.698 132.336 866.67 132.336 866.642 132.322C866.628 132.322 866.615 132.308 866.601 132.308C865.876 132.027 865.179 131.704 864.538 131.325C864.497 131.311 864.469 131.283 864.427 131.254C864.385 131.226 864.343 131.212 864.301 131.184C863.507 130.706 862.852 130.173 862.309 129.625C862.295 129.611 862.281 129.596 862.267 129.582C862.253 129.568 862.253 129.568 862.239 129.554C861.515 128.782 861.027 127.953 860.776 127.11C860.748 126.927 860.734 126.814 860.734 126.814C863.911 124.988 868.997 125.016 872.146 126.843Z" fill="#95DE64"/>
<path d="M949.577 150.209C951.988 151.614 952.002 153.89 949.605 155.281C947.209 156.686 943.321 156.686 940.91 155.281C938.5 153.876 938.486 151.6 940.883 150.209C943.279 148.804 947.167 148.804 949.577 150.209Z" fill="#D9F7BE"/>
<path d="M948.226 152.443L948.421 153.314L942.527 153.735L942.025 151.909L943.502 151.768L943.781 152.766L948.226 152.443Z" fill="#52C41A"/>
<path d="M907.292 139.747C908.232 140.263 908.237 141.102 907.304 141.618C906.371 142.135 904.85 142.135 903.91 141.618L888.708 133.264C887.768 132.748 887.763 131.909 888.696 131.393C889.629 130.876 891.15 130.876 892.09 131.393L907.292 139.747Z" fill="#D9F7BE"/>
<path d="M922.382 155.634C923.322 156.15 923.327 156.989 922.394 157.505C921.461 158.022 919.94 158.022 919 157.505L883.708 137.264C882.768 136.748 882.763 135.909 883.696 135.393C884.629 134.876 886.15 134.876 887.09 135.393L922.382 155.634Z" fill="#D9F7BE"/>
<path opacity="0.65" d="M1044.91 187.525C1039.33 199.846 1013.81 200.196 987.898 188.309C961.984 176.422 945.506 156.796 951.086 144.475C956.665 132.154 982.193 131.804 1008.1 143.691C1034.01 155.578 1050.49 175.204 1044.91 187.525Z" fill="url(#paint2_radial_884_528)"/>
<path d="M1079.71 132.854C1085.01 135.91 1085.03 140.87 1079.78 143.926L1031.73 171.844C1026.47 174.9 1017.91 174.9 1012.61 171.844L954.489 138.282C949.191 135.219 949.16 130.266 954.42 127.21L1002.46 99.292C1007.72 96.236 1016.28 96.236 1021.58 99.292L1079.71 132.854Z" fill="#BAE7FF"/>
<path d="M1007.91 130.599C1008.75 131.084 1008.76 131.873 1007.93 132.359L995.189 139.763C994.359 140.248 992.994 140.248 992.154 139.763C991.315 139.277 991.315 138.498 992.144 138.013L1004.89 130.609C1005.72 130.113 1007.07 130.113 1007.91 130.599Z" fill="#E6F7FF"/>
<path d="M1043.58 129.031C1044.42 129.517 1044.42 130.306 1043.59 130.791L1011.73 149.311C1010.9 149.796 1009.53 149.796 1008.69 149.311C1007.86 148.825 1007.85 148.047 1008.68 147.561L1040.55 129.041C1041.38 128.556 1042.75 128.556 1043.58 129.031Z" fill="#E6F7FF"/>
<path d="M1059.23 129.517C1060.07 130.002 1060.08 130.791 1059.25 131.277L1020 154.085C1019.17 154.57 1017.8 154.57 1016.97 154.085C1016.14 153.599 1016.13 152.821 1016.95 152.335L1056.21 129.527C1057.04 129.041 1058.39 129.041 1059.23 129.517Z" fill="#E6F7FF"/>
<path d="M1030.1 127.281C1030.94 127.767 1030.95 128.556 1030.12 129.041L1003.45 144.537C1002.62 145.022 1001.26 145.022 1000.42 144.537C999.579 144.051 999.579 143.272 1000.41 142.787L1027.08 127.291C1027.92 126.796 1029.26 126.796 1030.1 127.281Z" fill="#FF1818"/>
<path d="M1015.58 116.56C1016.42 117.045 1016.42 117.834 1015.6 118.32L986.905 134.989C986.075 135.474 984.71 135.474 983.87 134.989C983.031 134.503 983.031 133.724 983.86 133.239L1012.54 116.56C1013.37 116.074 1014.74 116.074 1015.58 116.56Z" fill="#E6F7FF"/>
<path d="M995.219 118.805C996.058 119.291 996.069 120.08 995.239 120.565L978.631 130.204C977.802 130.69 976.436 130.69 975.597 130.204C974.757 129.719 974.757 128.94 975.587 128.455L992.195 118.805C993.034 118.32 994.379 118.32 995.219 118.805Z" fill="#E6F7FF"/>
<g clip-path="url(#clip0_884_528)">
<path opacity="0.65" d="M821.045 128.382C816.116 146.243 781.769 152.07 744.33 141.399C706.884 130.729 680.531 107.596 685.46 89.7356C690.388 71.8749 724.736 66.0479 762.175 76.7187C799.615 87.3896 825.973 110.522 821.045 128.382Z" fill="url(#paint3_radial_884_528)"/>
<path d="M802.499 139.214C796.317 142.794 788.694 142.805 782.501 139.241L694.011 88.32C688.673 85.2483 688.662 77.55 693.991 74.4634L756.491 38.2646C762.674 34.6839 770.297 34.673 776.49 38.2363L864.988 89.1578C870.326 92.2295 870.337 99.9283 865.007 103.015L802.499 139.214Z" fill="#BAE7FF"/>
<mask id="mask1_884_528" style="mask-type:alpha" maskUnits="userSpaceOnUse" x="706" y="67" width="123" height="64">
<path d="M725.589 67.6666C727.695 68.8797 746.358 65.8186 751.862 68.9934C757.251 72.1019 747.383 83.3229 754.177 87.2369C760.97 91.151 801.171 79.0392 807.263 82.5552C813.354 86.0617 801.873 99.9836 807.842 103.424C813.81 106.864 824.541 104.334 827.937 106.286C831.334 108.248 825.167 111.802 827.159 112.948L796.56 130.595L706.859 78.8686L725.589 67.6666Z" fill="url(#paint4_linear_884_528)"/>
</mask>
<g mask="url(#mask1_884_528)">
<path d="M725.589 67.6666C727.695 68.8797 746.358 65.8186 751.862 68.9934C757.251 72.1019 747.383 83.3229 754.177 87.2369C760.97 91.151 801.171 79.0392 807.263 82.5552C813.354 86.0617 801.873 99.9836 807.842 103.424C813.81 106.864 824.541 104.334 827.937 106.286C831.334 108.248 825.167 111.802 827.159 112.948L796.56 130.595L706.859 78.8686L725.589 67.6666Z" fill="url(#paint5_linear_884_528)"/>
<path d="M826.799 113.564C826.305 113.28 826.135 112.891 826.068 112.626C825.888 111.792 826.467 110.968 827.14 110.02C827.691 109.233 828.383 108.257 828.25 107.632C828.231 107.537 828.165 107.243 827.586 106.902C826.286 106.153 823.459 106.144 820.461 106.134C816.058 106.115 811.067 106.096 807.5 104.04C804.037 102.04 805.498 97.3774 806.912 92.8663C808.24 88.6395 809.483 84.6496 806.921 83.1712C804.189 81.5885 792.945 83.6166 782.081 85.5784C769.472 87.8529 757.554 89.9947 753.845 87.8529C749.784 85.5121 750.96 80.982 751.994 76.9921C752.991 73.1349 753.465 70.7183 751.529 69.6095C748.313 67.7519 739.85 68.1784 733.663 68.4817C728.786 68.7281 726.206 68.8229 725.257 68.2827L725.968 67.0506C726.595 67.4108 730.314 67.2212 733.587 67.0601C740.305 66.7284 748.655 66.3114 752.232 68.3774C755.239 70.1117 754.281 73.7889 753.361 77.3523C752.364 81.1905 751.425 84.8202 754.547 86.6209C757.811 88.5068 770.563 86.2039 781.825 84.1758C793.96 81.9866 804.445 80.1006 807.633 81.9392C811.181 83.9862 809.701 88.7153 808.268 93.2928C806.969 97.4532 805.735 101.377 808.212 102.808C811.456 104.675 816.238 104.694 820.47 104.713C823.801 104.722 826.685 104.732 828.307 105.67C829.057 106.096 829.503 106.656 829.655 107.319C829.93 108.551 829.076 109.764 828.317 110.835C827.994 111.299 827.444 112.076 827.472 112.323L826.799 113.564Z" fill="#096DD9"/>
<path opacity="0.02" d="M810.346 84.5549L803.297 72.5095L772.109 54.4556C767.877 52.0105 767.868 45.9167 772.1 43.4621L786.493 34.999C788.467 33.8523 790.896 33.8523 792.869 34.9895L816.039 48.3902L839.209 61.7909C843.441 64.236 843.45 70.3297 839.219 72.7843L816.722 84.5549C814.758 85.6922 812.32 85.6922 810.346 84.5549Z" fill="black"/>
<path opacity="0.0455" d="M772.811 43.3768L778.267 40.1641C778.4 40.0882 783.609 37.1124 783.742 37.1883L786.92 35.5771C788.713 34.5347 791.313 34.7621 793.106 35.7951L811.532 46.4474L815.745 48.883L838.384 61.9709C838.507 62.0373 838.64 62.1226 838.754 62.1984C842.521 64.7098 842.416 70.3771 838.422 72.699L832.539 75.8075C832.406 75.8833 826.761 78.7549 826.637 78.6791L816.523 83.2471C814.73 84.2896 812.149 84.0716 810.356 83.0386L803.173 71.6376L801.807 70.851L772.83 54.0765C768.693 51.7072 768.684 45.765 772.811 43.3768Z" fill="black"/>
<path opacity="0.0709" d="M773.513 43.282L778.836 40.1356C779.092 39.984 783.96 37.3114 784.225 37.4631L787.319 36.1458C788.932 35.2075 791.702 35.6624 793.315 36.5912L811.305 46.9971L815.422 49.3758L837.53 62.1605C837.634 62.2268 837.786 62.3121 837.89 62.3879C841.581 64.833 841.496 70.3676 837.587 72.6327L831.884 75.6843C831.628 75.8359 826.372 78.4137 826.106 78.2716L816.286 81.9676C814.673 82.9059 811.94 82.4794 810.327 81.5507L803.002 70.7941L801.674 70.0265L773.513 53.7258C769.509 51.4039 769.5 45.6134 773.513 43.282Z" fill="black"/>
<path opacity="0.0964" d="M774.225 43.1872L779.416 40.1072C779.805 39.8797 784.321 37.501 784.71 37.7284L787.737 36.7238C789.169 35.8899 792.111 36.5722 793.543 37.3967L811.096 47.5467L815.11 49.8686L836.695 62.35C836.79 62.4068 836.961 62.5016 837.046 62.568C840.661 64.9467 840.595 70.3392 836.781 72.5474L831.249 75.5421C830.86 75.7696 825.993 78.0631 825.604 77.8356L816.078 80.6598C814.645 81.4938 811.77 80.8493 810.328 80.0248L802.861 69.9127L801.57 69.164L774.225 53.3372C770.326 51.0912 770.326 45.4618 774.225 43.1872Z" fill="black"/>
<path opacity="0.1218" d="M774.937 43.102L779.994 40.0882C780.507 39.785 784.691 37.7095 785.203 38.0033L788.154 37.302C789.406 36.5722 792.519 37.482 793.771 38.2023L810.897 48.1059L814.806 50.3709L835.86 62.549C835.946 62.5964 836.126 62.7006 836.202 62.7575C839.731 65.0794 839.684 70.3297 835.974 72.481L830.623 75.4189C830.111 75.7222 825.632 77.7314 825.11 77.4281L815.878 79.3804C814.626 80.1101 811.599 79.2572 810.347 78.5274L802.747 69.0598L801.485 68.3301L774.947 52.9771C771.142 50.7879 771.142 45.3006 774.937 43.102Z" fill="black"/>
<path opacity="0.1473" d="M775.648 43.0072L780.563 40.0598C781.208 39.6807 785.041 37.899 785.686 38.2781L788.561 37.8706C789.633 37.2451 792.916 38.3824 793.998 38.9984L810.688 48.6556L814.502 50.8637L835.025 62.7291C835.101 62.767 835.29 62.8807 835.357 62.9281C838.81 65.1837 838.782 70.3013 835.158 72.3958L829.986 75.2768C829.341 75.6559 825.252 77.3712 824.607 77.0016L815.669 78.082C814.597 78.7075 811.418 77.6366 810.346 77.0206L802.604 68.1974L801.38 67.4866L775.667 52.6075C771.967 50.4752 771.957 45.149 775.648 43.0072Z" fill="black"/>
<path opacity="0.1727" d="M776.351 42.9219L781.133 40.0408C781.911 39.5954 785.393 38.1075 786.171 38.5529L788.97 38.4487C789.862 37.9274 793.315 39.2827 794.217 39.8039L810.47 49.2052L814.18 51.3565L834.171 62.9186C834.228 62.9565 834.437 63.0703 834.494 63.1082C837.872 65.2974 837.853 70.2729 834.333 72.3199L829.332 75.1441C828.554 75.5895 824.854 77.0301 824.085 76.5846L815.442 76.7931C814.55 77.3144 811.22 76.0255 810.328 75.5137L802.443 67.335L801.257 66.6431L776.37 52.2379C772.783 50.1719 772.774 44.9974 776.351 42.9219Z" fill="black"/>
<path opacity="0.1982" d="M777.062 42.8271L781.712 40.0124C782.613 39.4912 785.754 38.2971 786.655 38.8183L789.388 39.0173C790.099 38.6003 793.724 40.183 794.445 40.6L810.271 49.7549L813.886 51.8493L833.346 63.1082C833.393 63.1366 833.612 63.2598 833.659 63.2977C836.961 65.4206 836.961 70.2634 833.536 72.2536L828.716 75.0209C827.814 75.5422 824.503 76.6984 823.592 76.1771L815.243 75.5137C814.531 75.9307 811.049 74.4333 810.337 74.0163L802.32 66.482L801.172 65.8186L777.081 51.8778C773.599 49.8686 773.59 44.8457 777.062 42.8271Z" fill="black"/>
<path opacity="0.2236" d="M777.774 42.7418L782.29 39.9935C783.324 39.3964 786.114 38.4961 787.148 39.0931L789.805 39.5954C790.346 39.2827 794.141 41.0928 794.672 41.4056L810.062 50.3046L813.573 52.3327L832.511 63.2882C832.549 63.3072 832.777 63.4399 832.805 63.4683C836.031 65.5248 836.05 70.235 832.71 72.1683L828.061 74.8787C827.027 75.4758 824.104 76.3382 823.07 75.7412L815.015 74.2059C814.474 74.5186 810.849 72.8033 810.318 72.5L802.158 65.6101L801.039 64.9657L777.764 51.4987C774.415 49.5559 774.406 44.6941 777.774 42.7418Z" fill="black"/>
<path opacity="0.2491" d="M778.485 42.647L782.869 39.9745C784.026 39.3016 786.474 38.7046 787.641 39.3774L790.222 40.183C790.583 39.9745 794.549 42.0121 794.9 42.2206L809.862 50.8732L813.278 52.8444L831.685 63.4872C831.714 63.4967 831.951 63.6389 831.97 63.6578C835.11 65.648 835.148 70.216 831.913 72.102L827.444 74.7555C826.286 75.4284 823.753 76.0065 822.586 75.3336L814.825 72.9265C814.464 73.135 810.697 71.2111 810.337 71.0026L802.035 64.7572L800.953 64.1317L778.495 51.1291C775.231 49.2526 775.221 44.5425 778.485 42.647Z" fill="black"/>
<path opacity="0.2745" d="M779.197 42.5618L783.447 39.9556C784.738 39.2069 786.835 38.9036 788.135 39.6523L790.639 40.7611C790.82 40.6569 794.957 42.9219 795.137 43.0262L809.663 51.4324L812.974 53.3467L830.85 63.6863C830.86 63.6958 831.116 63.8379 831.125 63.8474C834.19 65.7713 834.247 70.2065 831.106 72.0262L826.808 74.6229C825.518 75.3716 823.373 75.6654 822.083 74.9167L814.616 71.6376C814.436 71.7418 810.517 69.6 810.337 69.4958L801.902 63.8853L800.858 63.2788L779.216 50.7595C776.047 48.9399 776.037 44.3909 779.197 42.5618Z" fill="black"/>
<path opacity="0.3" d="M821.57 74.4902L800.744 62.4448L779.918 50.3994C776.862 48.6366 776.862 44.2392 779.908 42.4765L784.026 39.9366C785.449 39.1121 787.204 39.1121 788.628 39.9271L809.454 51.9726L830.281 64.018C833.336 65.7807 833.336 70.1781 830.29 71.9409L826.172 74.4807C824.749 75.3053 822.994 75.3147 821.57 74.4902Z" fill="black"/>
<path d="M811.618 80.0438L808.05 66.3114L770.278 44.4761C765.771 41.8794 766.331 37.3304 771.54 34.3261L776.464 31.483C781.673 28.4788 789.548 28.1565 794.055 30.7533L837.406 55.8108C841.913 58.4075 841.353 62.9565 836.144 65.9608L811.618 80.0438Z" fill="url(#paint6_linear_884_528)"/>
<path d="M792.508 144.204L683.148 80.7451L682 81.4085L792.508 145L875.368 96.7425L874.22 96.6098L792.508 144.204Z" fill="#414042"/>
</g>
<path d="M807.462 82.4215C807.995 82.4216 808.463 82.548 808.787 82.734C809.121 82.9261 809.237 83.1379 809.237 83.2946C809.237 83.454 809.123 83.6648 808.795 83.8551C808.476 84.0404 808.009 84.1666 807.471 84.1666C806.938 84.1666 806.469 84.0402 806.146 83.8541C805.811 83.6621 805.695 83.4512 805.695 83.2946C805.695 83.1351 805.81 82.9244 806.138 82.734C806.457 82.5487 806.924 82.4215 807.462 82.4215Z" fill="#E6F7FF" stroke="#096DD9" stroke-width="0.7"/>
</g>
<defs>
<radialGradient id="paint0_radial_884_528" cx="0" cy="0" r="1" gradientUnits="userSpaceOnUse" gradientTransform="translate(921.497 103.751) rotate(24.4887) scale(53.8948 28.8994)">
<stop stop-color="#D90909" stop-opacity="0.71"/>
<stop offset="1" stop-color="#FAFAFA" stop-opacity="0"/>
</radialGradient>
<radialGradient id="paint1_radial_884_528" cx="0" cy="0" r="1" gradientUnits="userSpaceOnUse" gradientTransform="translate(887.999 157) rotate(31.8881) scale(43.0234 20.5045)">
<stop stop-color="#D90909" stop-opacity="0.34"/>
<stop offset="1" stop-color="#E6F7FF" stop-opacity="0"/>
</radialGradient>
<radialGradient id="paint2_radial_884_528" cx="0" cy="0" r="1" gradientUnits="userSpaceOnUse" gradientTransform="translate(997 159) rotate(30.7672) scale(55.7684 26.4529)">
<stop stop-color="#FF1818" stop-opacity="0.44"/>
<stop offset="1" stop-color="#E6F7FF" stop-opacity="0"/>
</radialGradient>
<radialGradient id="paint3_radial_884_528" cx="0" cy="0" r="1" gradientUnits="userSpaceOnUse" gradientTransform="translate(753.251 109.059) rotate(15.9108) scale(70.5021 33.5434)">
<stop stop-color="#D90909" stop-opacity="0.5"/>
<stop offset="1" stop-color="#E6F7FF" stop-opacity="0"/>
</radialGradient>
<linearGradient id="paint4_linear_884_528" x1="759.576" y1="109.208" x2="793.673" y2="48.0473" gradientUnits="userSpaceOnUse">
<stop/>
<stop offset="1" stop-color="white"/>
</linearGradient>
<linearGradient id="paint5_linear_884_528" x1="763.124" y1="108.134" x2="791.539" y2="58.8243" gradientUnits="userSpaceOnUse">
<stop stop-color="#FF9191" stop-opacity="0"/>
<stop offset="1" stop-color="#D8A526"/>
</linearGradient>
<linearGradient id="paint6_linear_884_528" x1="769.592" y1="-0.291144" x2="858.298" y2="130.633" gradientUnits="userSpaceOnUse">
<stop offset="0.0354" stop-color="#9F19AB"/>
<stop offset="0.2438" stop-color="#AE25B1"/>
<stop offset="0.6455" stop-color="#D744BF"/>
<stop offset="1" stop-color="#FF63CE"/>
</linearGradient>
<clipPath id="clip0_884_528">
<rect width="195" height="116" fill="white" transform="translate(682 29)"/>
</clipPath>
</defs>
</svg>
